<?xml version="1.0" encoding="UTF-8" standalone="no"?>
<!DOCTYPE svg PUBLIC "-//W3C//DTD SVG 1.1//EN" "http://www.w3.org/Graphics/SVG/1.1/DTD/svg11.dtd">
<svg version="1.1" xmlns="http://www.w3.org/2000/svg" xmlns:xlink="http://www.w3.org/1999/xlink" preserveAspectRatio="xMidYMid meet" viewBox="4.998781218781232 20.079034136858283 52.00418581418582 19.575427735387443" width="147.94" height="48"><defs><path d="M18.46 36.65L22.08 30" id="i3pqYWAa8s"></path><path d="M40.58 24.27L37.85 24.83L39.26 21.82L40.58 24.27Z" id="a4UaY2qN8z"></path><path d="M40.33 33.08C34.87 36.35 26.64 37.54 19.69 33.08" id="a6ByEwLuB0"></path><path d="M40.33 24C34.87 20.72 26.64 19.53 19.69 24" id="a4O6z5kVRp"></path><path d="M54 30C54 33.31 51.31 36 48 36C44.69 36 42 33.31 42 30C42 26.69 44.69 24 48 24C51.31 24 54 26.69 54 30Z" id="cUwhRUdjN"></path><path d="M18 30C18 33.31 15.31 36 12 36C8.69 36 6 33.31 6 30C6 26.69 8.69 24 12 24C15.31 24 18 26.69 18 30Z" id="f8F9JMiSJ"></path></defs><g><g><g><use xlink:href="#i3pqYWAa8s" opacity="1" fill-opacity="0" stroke="#000000" stroke-width="2" stroke-opacity="1"></use></g></g><g><g><use xlink:href="#a4UaY2qN8z" opacity="1" fill-opacity="0" stroke="#000000" stroke-width="2" stroke-opacity="1"></use></g></g><g><g><use xlink:href="#a6ByEwLuB0" opacity="1" fill-opacity="0" stroke="#000000" stroke-width="2" stroke-opacity="1"></use></g></g><g><g><use xlink:href="#a4O6z5kVRp" opacity="1" fill-opacity="0" stroke="#000000" stroke-width="2" stroke-opacity="1"></use></g></g><g><use xlink:href="#cUwhRUdjN" opacity="1" fill="#000000" fill-opacity="1"></use></g><g><use xlink:href="#f8F9JMiSJ" opacity="1" fill="#000000" fill-opacity="1"></use></g></g></svg>